{
  "accessors": [
    {
      "name": "ZX11_09_1_0_positions",
      "componentType": 5126,
      "count": 942,
      "min": [
        -6.535099983215332,
        -3.2685999870300293,
        -3.1782000064849854
      ],
      "max": [
        8.72249984741211,
        3.809999942779541,
        4.177999973297119
      ],
      "type": "VEC3",
      "bufferView": 0,
      "byteOffset": 0
    },
    {
      "name": "ZX11_09_1_0_normals",
      "componentType": 5126,
      "count": 942,
      "min": [
        -0.8986088633537292,
        -0.9997161030769348,
        -0.9948858618736267
      ],
      "max": [
        0.8975881934165955,
        0.9997155070304871,
        0.9948656558990479
      ],
      "type": "VEC3",
      "bufferView": 1,
      "byteOffset": 0
    },
    {
      "name": "ZX11_09_1_0_texcoords",
      "componentType": 5126,
      "count": 942,
      "min": [
        -0.3116999864578247,
        0.00800000037997961
      ],
      "max": [
        1.4217000007629395,
        0.9919999837875366
      ],
      "type": "VEC2",
      "bufferView": 2,
      "byteOffset": 0
    },
    {
      "name": "ZX11_09_1_0_indices",
      "componentType": 5123,
      "count": 3936,
      "min": [
        0
      ],
      "max": [
        941
      ],
      "type": "SCALAR",
      "bufferView": 3,
      "byteOffset": 0
    }
  ],
  "asset": {
    "generator": "obj2gltf",
    "version": "2.0"
  },
  "buffers": [
    {
      "name": "LAJI02",
      "byteLength": 64276,
      "uri": "data:application/octet-stream;base64,"
    }
  ],
  "bufferViews": [
    {
      "name": "bufferView_0",
      "buffer": 0,
      "byteLength": 11304,
      "byteOffset": 0,
      "byteStride": 12,
      "target": 34962
    },
    {
      "name": "bufferView_1",
      "buffer": 0,
      "byteLength": 11304,
      "byteOffset": 11304,
      "byteStride": 12,
      "target": 34962
    },
    {
      "name": "bufferView_2",
      "buffer": 0,
      "byteLength": 7536,
      "byteOffset": 22608,
      "byteStride": 8,
      "target": 34962
    },
    {
      "name": "bufferView_3",
      "buffer": 0,
      "byteLength": 7872,
      "byteOffset": 30144,
      "target": 34963
    },
    {
      "buffer": 0,
      "byteOffset": 38016,
      "byteLength": 26258
    }
  ],
  "images": [
    {
      "name": "Met0132",
      "mimeType": "image/png",
      "bufferView": 4
    }
  ],
  "materials": [
    {
      "name": "01___Default",
      "pbrMetallicRoughness": {
        "baseColorTexture": {
          "index": 0
        },
        "baseColorFactor": [
          1,
          1,
          1,
          1
        ],
        "metallicFactor": 0,
        "roughnessFactor": 0.99
      },
      "emissiveFactor": [
        0,
        0,
        0
      ],
      "alphaMode": "OPAQUE",
      "doubleSided": false
    }
  ],
  "meshes": [
    {
      "name": "ZX11_09_1",
      "primitives": [
        {
          "attributes": {
            "POSITION": 0,
            "NORMAL": 1,
            "TEXCOORD_0": 2
          },
          "indices": 3,
          "material": 0,
          "mode": 4
        }
      ]
    }
  ],
  "nodes": [
    {
      "name": "ZX11_09",
      "mesh": 0
    }
  ],
  "samplers": [
    {
      "magFilter": 9729,
      "minFilter": 9986,
      "wrapS": 10497,
      "wrapT": 10497
    }
  ],
  "scene": 0,
  "scenes": [
    {
      "nodes": [
        0
      ]
    }
  ],
  "textures": [
    {
      "name": "Met0132",
      "sampler": 0,
      "source": 0
    }
  ]
}
