{
  "accessors": [
    {
      "name": "ZX11_10_1_0_positions",
      "componentType": 5126,
      "count": 118,
      "min": [
        -1.8961000442504883,
        -0.8687999844551086,
        -0.052400000393390656
      ],
      "max": [
        2.1682000160217285,
        1.083400011062622,
        0.02710000053048134
      ],
      "type": "VEC3",
      "bufferView": 0,
      "byteOffset": 0
    },
    {
      "name": "ZX11_10_1_0_normals",
      "componentType": 5126,
      "count": 118,
      "min": [
        -1,
        -1,
        -1
      ],
      "max": [
        1,
        0.9999985694885254,
        1
      ],
      "type": "VEC3",
      "bufferView": 1,
      "byteOffset": 0
    },
    {
      "name": "ZX11_10_1_0_texcoords",
      "componentType": 5126,
      "count": 118,
      "min": [
        0.4986000061035156,
        0.5396000146865845
      ],
      "max": [
        1,
        0.8122000098228455
      ],
      "type": "VEC2",
      "bufferView": 2,
      "byteOffset": 0
    },
    {
      "name": "ZX11_10_1_0_indices",
      "componentType": 5123,
      "count": 408,
      "min": [
        0
      ],
      "max": [
        117
      ],
      "type": "SCALAR",
      "bufferView": 3,
      "byteOffset": 0
    },
    {
      "name": "ZX11_06_1_0_positions",
      "componentType": 5126,
      "count": 52,
      "min": [
        -1.9763000011444092,
        -0.7098000049591064,
        -0.06369999796152115
      ],
      "max": [
        -1.8585000038146973,
        0.9150999784469604,
        0.03840000182390213
      ],
      "type": "VEC3",
      "bufferView": 0,
      "byteOffset": 1416
    },
    {
      "name": "ZX11_06_1_0_normals",
      "componentType": 5126,
      "count": 52,
      "min": [
        -1,
        -1,
        -0.866019070148468
      ],
      "max": [
        1,
        1,
        0.866019070148468
      ],
      "type": "VEC3",
      "bufferView": 1,
      "byteOffset": 1416
    },
    {
      "name": "ZX11_06_1_0_texcoords",
      "componentType": 5126,
      "count": 52,
      "min": [
        0.0674000009894371,
        -0.07680000364780426
      ],
      "max": [
        1.0936000347137451,
        1.076799988746643
      ],
      "type": "VEC2",
      "bufferView": 2,
      "byteOffset": 944
    },
    {
      "name": "ZX11_06_1_0_indices",
      "componentType": 5123,
      "count": 120,
      "min": [
        0
      ],
      "max": [
        51
      ],
      "type": "SCALAR",
      "bufferView": 3,
      "byteOffset": 816
    }
  ],
  "asset": {
    "generator": "obj2gltf",
    "version": "2.0"
  },
  "buffers": [
    {
      "name": "LAJI01",
      "byteLength": 386852,
      "uri": "data:application/octet-stream;base64,"
    }
  ],
  "bufferViews": [
    {
      "name": "bufferView_0",
      "buffer": 0,
      "byteLength": 2040,
      "byteOffset": 0,
      "byteStride": 12,
      "target": 34962
    },
    {
      "name": "bufferView_1",
      "buffer": 0,
      "byteLength": 2040,
      "byteOffset": 2040,
      "byteStride": 12,
      "target": 34962
    },
    {
      "name": "bufferView_2",
      "buffer": 0,
      "byteLength": 1360,
      "byteOffset": 4080,
      "byteStride": 8,
      "target": 34962
    },
    {
      "name": "bufferView_3",
      "buffer": 0,
      "byteLength": 1056,
      "byteOffset": 5440,
      "target": 34963
    },
    {
      "buffer": 0,
      "byteOffset": 6496,
      "byteLength": 370609
    },
    {
      "buffer": 0,
      "byteOffset": 377105,
      "byteLength": 9745
    }
  ],
  "images": [
    {
      "name": "1",
      "mimeType": "image/png",
      "bufferView": 4
    },
    {
      "name": "Met013",
      "mimeType": "image/png",
      "bufferView": 5
    }
  ],
  "materials": [
    {
      "name": "Material__334",
      "pbrMetallicRoughness": {
        "baseColorTexture": {
          "index": 0
        },
        "baseColorFactor": [
          1,
          1,
          1,
          1
        ],
        "metallicFactor": 0,
        "roughnessFactor": 0.945
      },
      "emissiveFactor": [
        0,
        0,
        0
      ],
      "alphaMode": "OPAQUE",
      "doubleSided": false
    },
    {
      "name": "01___Default",
      "pbrMetallicRoughness": {
        "baseColorTexture": {
          "index": 1
        },
        "baseColorFactor": [
          1,
          1,
          1,
          1
        ],
        "metallicFactor": 0,
        "roughnessFactor": 0.99
      },
      "emissiveFactor": [
        0,
        0,
        0
      ],
      "alphaMode": "OPAQUE",
      "doubleSided": false
    }
  ],
  "meshes": [
    {
      "name": "ZX11_10_1",
      "primitives": [
        {
          "attributes": {
            "POSITION": 0,
            "NORMAL": 1,
            "TEXCOORD_0": 2
          },
          "indices": 3,
          "material": 0,
          "mode": 4
        }
      ]
    },
    {
      "name": "ZX11_06_1",
      "primitives": [
        {
          "attributes": {
            "POSITION": 4,
            "NORMAL": 5,
            "TEXCOORD_0": 6
          },
          "indices": 7,
          "material": 1,
          "mode": 4
        }
      ]
    }
  ],
  "nodes": [
    {
      "name": "ZX11_10",
      "mesh": 0
    },
    {
      "name": "ZX11_06",
      "mesh": 1
    }
  ],
  "samplers": [
    {
      "magFilter": 9729,
      "minFilter": 9986,
      "wrapS": 10497,
      "wrapT": 10497
    }
  ],
  "scene": 0,
  "scenes": [
    {
      "nodes": [
        0,
        1
      ]
    }
  ],
  "textures": [
    {
      "name": "1",
      "sampler": 0,
      "source": 0
    },
    {
      "name": "Met013",
      "sampler": 0,
      "source": 1
    }
  ]
}
