{
  "accessors": [
    {
      "name": "Cylinder001_1_0_positions",
      "componentType": 5126,
      "count": 936,
      "min": [
        -3.415800094604492,
        -4.007900238037109,
        -8.634699821472168
      ],
      "max": [
        3.634999990463257,
        3.6291000843048096,
        6.361400127410889
      ],
      "type": "VEC3",
      "bufferView": 0,
      "byteOffset": 0
    },
    {
      "name": "Cylinder001_1_0_normals",
      "componentType": 5126,
      "count": 936,
      "min": [
        -0.9975681304931641,
        -0.9872294664382935,
        -0.9998103380203247
      ],
      "max": [
        1,
        0.9872294664382935,
        0.9991343021392822
      ],
      "type": "VEC3",
      "bufferView": 1,
      "byteOffset": 0
    },
    {
      "name": "Cylinder001_1_0_texcoords",
      "componentType": 5126,
      "count": 936,
      "min": [
        -0.010700000450015068,
        -0.003000000026077032
      ],
      "max": [
        1.010699987411499,
        1.003000020980835
      ],
      "type": "VEC2",
      "bufferView": 2,
      "byteOffset": 0
    },
    {
      "name": "Cylinder001_1_0_indices",
      "componentType": 5123,
      "count": 2700,
      "min": [
        0
      ],
      "max": [
        935
      ],
      "type": "SCALAR",
      "bufferView": 3,
      "byteOffset": 0
    },
    {
      "name": "Box037_1_0_positions",
      "componentType": 5126,
      "count": 48,
      "min": [
        2.362600088119507,
        -2.4465999603271484,
        -8.38129997253418
      ],
      "max": [
        3.589099884033203,
        0.20270000398159027,
        4.671599864959717
      ],
      "type": "VEC3",
      "bufferView": 0,
      "byteOffset": 11232
    },
    {
      "name": "Box037_1_0_normals",
      "componentType": 5126,
      "count": 48,
      "min": [
        -1,
        -1,
        -1
      ],
      "max": [
        1,
        1,
        1
      ],
      "type": "VEC3",
      "bufferView": 1,
      "byteOffset": 11232
    },
    {
      "name": "Box037_1_0_texcoords",
      "componentType": 5126,
      "count": 48,
      "min": [
        0,
        0
      ],
      "max": [
        1,
        1
      ],
      "type": "VEC2",
      "bufferView": 2,
      "byteOffset": 7488
    },
    {
      "name": "Box037_1_0_indices",
      "componentType": 5123,
      "count": 72,
      "min": [
        0
      ],
      "max": [
        47
      ],
      "type": "SCALAR",
      "bufferView": 3,
      "byteOffset": 5400
    }
  ],
  "asset": {
    "generator": "obj2gltf",
    "version": "2.0"
  },
  "buffers": [
    {
      "name": "LAJI03",
      "byteLength": 63292,
      "uri": "data:application/octet-stream;base64,"
    }
  ],
  "bufferViews": [
    {
      "name": "bufferView_0",
      "buffer": 0,
      "byteLength": 11808,
      "byteOffset": 0,
      "byteStride": 12,
      "target": 34962
    },
    {
      "name": "bufferView_1",
      "buffer": 0,
      "byteLength": 11808,
      "byteOffset": 11808,
      "byteStride": 12,
      "target": 34962
    },
    {
      "name": "bufferView_2",
      "buffer": 0,
      "byteLength": 7872,
      "byteOffset": 23616,
      "byteStride": 8,
      "target": 34962
    },
    {
      "name": "bufferView_3",
      "buffer": 0,
      "byteLength": 5544,
      "byteOffset": 31488,
      "target": 34963
    },
    {
      "buffer": 0,
      "byteOffset": 37032,
      "byteLength": 26258
    }
  ],
  "images": [
    {
      "name": "Met0132",
      "mimeType": "image/png",
      "bufferView": 4
    }
  ],
  "materials": [
    {
      "name": "01___Default",
      "pbrMetallicRoughness": {
        "baseColorTexture": {
          "index": 0
        },
        "baseColorFactor": [
          1,
          1,
          1,
          1
        ],
        "metallicFactor": 0,
        "roughnessFactor": 0.99
      },
      "emissiveFactor": [
        0,
        0,
        0
      ],
      "alphaMode": "OPAQUE",
      "doubleSided": false
    }
  ],
  "meshes": [
    {
      "name": "Cylinder001_1",
      "primitives": [
        {
          "attributes": {
            "POSITION": 0,
            "NORMAL": 1,
            "TEXCOORD_0": 2
          },
          "indices": 3,
          "material": 0,
          "mode": 4
        }
      ]
    },
    {
      "name": "Box037_1",
      "primitives": [
        {
          "attributes": {
            "POSITION": 4,
            "NORMAL": 5,
            "TEXCOORD_0": 6
          },
          "indices": 7,
          "material": 0,
          "mode": 4
        }
      ]
    }
  ],
  "nodes": [
    {
      "name": "Cylinder001",
      "mesh": 0
    },
    {
      "name": "Box037",
      "mesh": 1
    }
  ],
  "samplers": [
    {
      "magFilter": 9729,
      "minFilter": 9986,
      "wrapS": 10497,
      "wrapT": 10497
    }
  ],
  "scene": 0,
  "scenes": [
    {
      "nodes": [
        0,
        1
      ]
    }
  ],
  "textures": [
    {
      "name": "Met0132",
      "sampler": 0,
      "source": 0
    }
  ]
}
